HIERARCHY
ROOT HipCenter
{
    OFFSET 0.0 0.0 -0.0
    CHANNELS 6 Xposition Yposition Zposition Zrotation Xrotation Yrotation
    JOINT Spine
    {
        OFFSET 0.0 0.12150578945875168 0.0
        CHANNELS 3 Zrotation Xrotation Yrotation
        JOINT ShoulderCenter
        {
            OFFSET 0.0 0.3339182436466217 0.0
            CHANNELS 3 Zrotation Xrotation Yrotation
            JOINT LeftShoulder
            {
                OFFSET 0.22340819239616394 0.0 0.0
                CHANNELS 3 Zrotation Xrotation Yrotation
                JOINT LeftElbow
                {
                    OFFSET 0.3044331669807434 0.0 0.0
                    CHANNELS 3 Zrotation Xrotation Yrotation
                    JOINT LeftWrist
                    {
                        OFFSET 0.3116108775138855 0.0 0.0
                        CHANNELS 3 Zrotation Xrotation Yrotation
                        JOINT LeftHand
                        {
                            OFFSET 0.03332463651895523 0.0 0.0
                            CHANNELS 3 Zrotation Xrotation Yrotation
                            End Site
                            {
                                OFFSET 0.013329856097698212 0.0 0.0
                            }
                        }
                    }
                }
            }
            JOINT RightShoulder
            {
                OFFSET -0.22340819239616394 0.0 0.0
                CHANNELS 3 Zrotation Xrotation Yrotation
                JOINT RightElbow
                {
                    OFFSET -0.3044331669807434 0.0 0.0
                    CHANNELS 3 Zrotation Xrotation Yrotation
                    JOINT RightWrist
                    {
                        OFFSET -0.3116108775138855 0.0 0.0
                        CHANNELS 3 Zrotation Xrotation Yrotation
                        JOINT RightHand
                        {
                            OFFSET -0.03332463651895523 0.0 0.0
                            CHANNELS 3 Zrotation Xrotation Yrotation
                            End Site
                            {
                                OFFSET -0.013329856097698212 0.0 0.0
                            }
                        }
                    }
                }
            }
            End Site
            {
                OFFSET 0.0 0.13356728851795197 0.0
            }
        }
    }
    JOINT LeftHip
    {
        OFFSET 0.13716834783554077 0.0 0.0
        CHANNELS 3 Zrotation Xrotation Yrotation
        JOINT LeftKnee
        {
            OFFSET 0.0 -0.42703914642333984 0.0
            CHANNELS 3 Zrotation Xrotation Yrotation
            JOINT LeftAnkle
            {
                OFFSET 0.0 -0.43515247106552124 0.0
                CHANNELS 3 Zrotation Xrotation Yrotation
                JOINT LeftFoot
                {
                    OFFSET 0.0 -0.13786539435386658 0.0
                    CHANNELS 3 Zrotation Xrotation Yrotation
                    End Site
                    {
                        OFFSET 0.0 0.0 0.05514615401625633
                    }
                }
            }
        }
    }
    JOINT RightHip
    {
        OFFSET -0.13716834783554077 0.0 0.0
        CHANNELS 3 Zrotation Xrotation Yrotation
        JOINT RightKnee
        {
            OFFSET 0.0 -0.42703914642333984 0.0
            CHANNELS 3 Zrotation Xrotation Yrotation
            JOINT RightAnkle
            {
                OFFSET 0.0 -0.43515247106552124 0.0
                CHANNELS 3 Zrotation Xrotation Yrotation
                JOINT RightFoot
                {
                    OFFSET 0.0 -0.13786539435386658 0.0
                    CHANNELS 3 Zrotation Xrotation Yrotation
                    End Site
                    {
                        OFFSET 0.0 0.0 0.05514615401625633
                    }
                }
            }
        }
    }
}
MOTION
Frames: 5
Frame Time: 0.03333333333333333
-0.4819999933242798 -0.8270000219345093 -0.8410000205039978 -45.66618145707944 1.8835805429162251 -156.75046696021965 2.297308218102718 18.639179641244514 -3.667839699684861 1.498571547026188e-06 1.8129673157266472e-07 0.9833389158850241 137.77249326442742 28.854889908151563 -129.37647620808016 5.815544737813636e-07 -2.6845410807630236e-06 74.45274697343805 1.7850836452345567e-06 -66.72298265586473 30.1939985461407 0.0 3.1805546814635168e-15 0.0 -117.36336208474225 12.96396892199945 170.2590405096055 1.2444270058493808e-06 5.75059913251691e-06 -67.405853922107 8.780207591017625e-06 -40.90822986193538 -43.58259015808994 4.770832022195275e-15 1.3241718894150476e-31 3.1805546814635168e-15 118.14993004756116 -41.813595685477246 -153.58461352345643 114.14703567053041 -2.6633125645813664 178.0709201419509 57.52575002620606 -26.231011097267523 97.69454890722874 -1.5902773407317584e-15 0.0 0.0 -109.48806525615159 -72.94975474734747 -160.65673111682273 -162.67825986645025 54.29086283313507 -155.3929326476988 -100.92962960924159 -34.85025157096346 -80.03488363983271 6.3611093629270335e-15 -6.3611093629270335e-15 -3.1805546814635164e-15
-0.4909999966621399 -0.8090000152587891 -0.8679999709129333 -38.290152455049885 -6.597934331132123 -162.13778813921414 0.7363976535495443 16.274807832936894 -1.5043558951368305 -5.538830177233072e-07 -5.586775298545877e-08 -1.8938118429764652 145.1094704291452 31.105370548837456 -126.08683582695974 -2.2156051242840516e-06 2.540063387214427e-06 71.26133311271232 1.077466043855695e-06 -67.57440569365808 25.673578828465665 7.95138670365879e-15 0.0 0.0 -112.99078850010723 12.733072489883352 169.8102557162502 5.620814647203082e-06 -2.6505801502352277e-06 -66.44286748615342 -1.0499302152057783e-06 -34.0236206823407 -46.54498697334658 1.7655625192200634e-31 -3.1805546814635168e-15 6.3611093629270335e-15 128.19261878665023 -35.69450162079461 -146.35522658661966 115.74842829400973 0.4692051971677499 -179.63361926083616 50.145783656051805 -31.00344353248963 86.37187489304625 1.7655625192200634e-31 6.3611093629270335e-15 -3.1805546814635168e-15 -119.08728700461046 -68.08212058402859 -179.291945860896 -162.90943219654451 49.589746362718785 -156.5941415827632 -105.66719698597564 -40.4654777645087 -85.35495065722438 0.0 0.0 -3.1805546814635168e-15
-0.4959999918937683 -0.7900000214576721 -0.8949999809265137 -30.291688323758628 -14.84357484519561 -166.2951930709416 0.11811531189090146 14.098580627896657 0.19327339633115811 -5.293594766713485e-07 1.0343253921671893e-06 -4.736738336154956 152.60278894062287 33.6281745167363 -122.14420088066315 -2.811171082552535e-06 6.326514957301086e-07 65.4979176279532 1.3567419149615782e-05 -70.69948920234381 23.733011621351224 -6.361109362927033e-15 0.0 0.0 -109.6164089987237 10.668893562760445 167.69824122865725 3.7476745194373605e-06 1.552434268948368e-06 -61.087713050694056 1.0233747619389242e-06 -28.681259387434885 -51.64999727869579 9.541664044390549e-15 -6.361109362927033e-15 1.5902773407317588e-15 136.04921752578446 -28.972674776984764 -141.19349618548816 117.56239216365316 3.3250212982797294 -177.33152239535872 41.912972299984325 -31.83850529475229 72.61263979859238 -7.951386703658792e-16 0.0 0.0 -122.81546175168312 -64.23783694966134 169.13874176606953 -168.7321323379338 47.75238889752618 -152.74576021814335 -107.66449051960916 -46.0496033052085 -83.18256803172835 3.1805546814635168e-15 8.827812596100317e-32 3.1805546814635168e-15
-0.5009999871253967 -0.7699999809265137 -0.9240000247955322 -21.99113301320989 -22.29982512249041 -168.53920463683508 1.028075260039919 12.403273165202634 0.7719289802719831 -7.790704352464273e-07 -8.440060070066987e-07 -6.527421535535574 157.46251106094172 35.08715798957732 -117.80979665927268 7.727696214335063e-07 -7.633823332943598e-07 58.56160095965929 -8.45203504705386e-06 -68.69616572198088 23.07880327566194 1.5902773407317588e-15 -8.827812596100317e-32 -6.361109362927035e-15 -108.4845938701529 7.952621145975968 165.65144540370179 2.179719205356988e-06 1.2130348409449218e-07 -55.16446651820835 2.38191158034388e-06 -30.43180055545294 -58.544353297557805 3.1805546814635164e-15 0.0 0.0 143.17008183926316 -24.126713345515643 -137.42465492057983 118.81137971442827 5.85101513640637 -174.9599234604399 36.76529983305485 -32.77704712012695 67.51803799966022 7.951386703658792e-16 6.3611093629270335e-15 -1.5902773407317584e-15 -128.10790442990756 -62.94989518137074 161.26523273390447 -177.35933425059463 47.552953182389814 -146.51923023534928 -108.4664102373442 -49.67393411664676 -79.15750394039144 0.0 0.0 0.0
-0.5070000290870667 -0.746999979019165 -0.9539999961853027 -14.688809729378095 -28.57724948940247 -169.92786994962609 2.5058226456141925 11.94813268577545 0.32788796808785053 -1.3157026245534305e-06 -5.141088883921809e-06 -7.235531362102229 156.6337989988991 35.05985760930591 -112.82199195578934 2.631424364158454e-07 -7.47596096852242e-08 52.19613702760109 3.7498162282682063e-06 -68.20703748633457 21.884700190262276 9.54166404439055e-15 0.0 0.0 -108.00560776659286 5.588421312336365 161.64870781445552 -3.651547317412245e-06 -3.695252432282362e-07 -47.97749591256782 -4.1570130397468596e-07 -29.397833008414484 -63.17361680974469 -3.1805546814635168e-15 0.0 0.0 148.42171187091972 -20.243545759114458 -134.9792118305768 120.10344148530552 6.672191599376094 -173.29178989280828 39.900627778989765 -39.93013656339513 82.02151748787367 1.5902773407317582e-15 0.0 0.0 -146.74625839448203 -61.026524483418314 147.21528216334048 176.8802079620124 47.78886160063648 -148.05909180026572 -112.75344373369337 -60.40577445798571 -86.68572324400122 6.3611093629270335e-15 0.0 0.0
